# xmcd
#
# Track frame offsets:
#	225
#	13927
#	28185
#	42437
#	57542
#	70200
#	80505
#	94427
#	106225
#	119340
#	130360
#	143940
#	158475
#	176417
#
# Disc length: 2515 seconds
#
# Revision: 2
# Processed by: cddbd v1.5.1PL0 Copyright (c) Steve Scherf et al.
# Submitted via: audiograbber 1.83.01
#
DISCID=c809d00e
DTITLE=Various Artist - Auto Country Rodeo
DYEAR=1995
DGENRE=Country
TTITLE0=P. Cernocka - Nakladak
TTITLE1=J. Vancura - Zvednete kotvy
TTITLE2=H. Lounova - Sportak
TTITLE3=J. Zoch - Nazpet se vratil
TTITLE4=V. Martinova - Hloupej dava
TTITLE5=J. Zima - Six days on the road
TTITLE6=Grosaci - Hank
TTITLE7=K. Kahovec - Chodi, jen tak bosy
TTITLE8=Moskyti - Holka z Marlborough Street
TTITLE9=V. Hrubec - Z dyzlu kour
TTITLE10=Gram - Workin' man blues
TTITLE11=M. Pavova - Ja vstavam v pul
TTITLE12=M. Matousek - Taxis
TTITLE13=Schovanky - Eight days a week
EXTD=
EXTT0=
EXTT1=
EXTT2=
EXTT3=
EXTT4=
EXTT5=
EXTT6=
EXTT7=
EXTT8=
EXTT9=
EXTT10=
EXTT11=
EXTT12=
EXTT13=
PLAYORDER=
